<mxfile host="app.diagrams.net">
  <diagram name="TradeRsqlVisitor-visitComparisonNode-Detailed">
    <mxGraphModel dx="1000" dy="1000" grid="1" gridSize="10" guides="1" tooltips="1" connect="1" arrows="1" fold="1" page="1" pageScale="1" pageWidth="827" pageHeight="1169" math="0" shadow="0">
      <root>
        <mxCell id="0" />
        <mxCell id="1" parent="0" />
        <mxCell id="2" value="Start visit(ComparisonNode)" style="ellipse;whiteSpace=wrap;html=1;" vertex="1" parent="1">
          <mxGeometry x="80" y="40" width="220" height="60" as="geometry" />
        </mxCell>
        <mxCell id="3" value="Extract field, operator, values" style="rounded=1;whiteSpace=wrap;html=1;" vertex="1" parent="1">
          <mxGeometry x="80" y="120" width="220" height="60" as="geometry" />
        </mxCell>
        <mxCell id="4" value="Check operator supported?" style="rhombus;whiteSpace=wrap;html=1;" vertex="1" parent="1">
          <mxGeometry x="80" y="200" width="180" height="60" as="geometry" />
        </mxCell>
        <mxCell id="5" value="Throw exception" style="rounded=1;whiteSpace=wrap;html=1;fillColor=#ffcccc;" vertex="1" parent="1">
          <mxGeometry x="320" y="200" width="160" height="60" as="geometry" />
        </mxCell>
        <mxCell id="6" value="Split field by '.' to get fieldParts" style="rounded=1;whiteSpace=wrap;html=1;" vertex="1" parent="1">
          <mxGeometry x="80" y="280" width="220" height="60" as="geometry" />
        </mxCell>
        <mxCell id="7" value="For each part in fieldParts" style="rhombus;whiteSpace=wrap;html=1;" vertex="1" parent="1">
          <mxGeometry x="80" y="360" width="180" height="60" as="geometry" />
        </mxCell>
        <mxCell id="8" value="Field exists in class? (reflection)" style="rhombus;whiteSpace=wrap;html=1;" vertex="1" parent="1">
          <mxGeometry x="80" y="440" width="200" height="60" as="geometry" />
        </mxCell>
        <mxCell id="9" value="Throw exception" style="rounded=1;whiteSpace=wrap;html=1;fillColor=#ffcccc;" vertex="1" parent="1">
          <mxGeometry x="320" y="440" width="160" height="60" as="geometry" />
        </mxCell>
        <mxCell id="10" value="If traversing, check type not primitive/String/Number/Enum" style="rounded=1;whiteSpace=wrap;html=1;" vertex="1" parent="1">
          <mxGeometry x="80" y="520" width="320" height="60" as="geometry" />
        </mxCell>
        <mxCell id="11" value="If invalid, throw exception" style="rounded=1;whiteSpace=wrap;html=1;fillColor=#ffcccc;" vertex="1" parent="1">
          <mxGeometry x="440" y="520" width="160" height="60" as="geometry" />
        </mxCell>
        <mxCell id="12" value="Update currentClass to field type" style="rounded=1;whiteSpace=wrap;html=1;" vertex="1" parent="1">
          <mxGeometry x="80" y="600" width="220" height="60" as="geometry" />
        </mxCell>
        <mxCell id="13" value="End For" style="ellipse;whiteSpace=wrap;html=1;" vertex="1" parent="1">
          <mxGeometry x="80" y="680" width="100" height="40" as="geometry" />
        </mxCell>
        <mxCell id="14" value="Traverse path in entity using fieldParts" style="rounded=1;whiteSpace=wrap;html=1;" vertex="1" parent="1">
          <mxGeometry x="80" y="740" width="320" height="60" as="geometry" />
        </mxCell>
        <mxCell id="15" value="Get field type" style="rounded=1;whiteSpace=wrap;html=1;" vertex="1" parent="1">
          <mxGeometry x="80" y="820" width="180" height="60" as="geometry" />
        </mxCell>
        <mxCell id="16" value="Convert value(s) to correct type" style="rounded=1;whiteSpace=wrap;html=1;" vertex="1" parent="1">
          <mxGeometry x="80" y="900" width="220" height="60" as="geometry" />
        </mxCell>
        <mxCell id="17" value="Operator switch/case" style="rounded=1;whiteSpace=wrap;html=1;" vertex="1" parent="1">
          <mxGeometry x="80" y="980" width="180" height="60" as="geometry" />
        </mxCell>
        <mxCell id="18" value="== : equal (case-insensitive for strings)" style="rounded=1;whiteSpace=wrap;html=1;" vertex="1" parent="1">
          <mxGeometry x="320" y="980" width="320" height="40" as="geometry" />
        </mxCell>
        <mxCell id="19" value="!= : notEqual (case-insensitive for strings)" style="rounded=1;whiteSpace=wrap;html=1;" vertex="1" parent="1">
          <mxGeometry x="320" y="1020" width="320" height="40" as="geometry" />
        </mxCell>
        <mxCell id="20" value="=gt= : greaterThan" style="rounded=1;whiteSpace=wrap;html=1;" vertex="1" parent="1">
          <mxGeometry x="320" y="1060" width="320" height="40" as="geometry" />
        </mxCell>
        <mxCell id="21" value="=lt= : lessThan" style="rounded=1;whiteSpace=wrap;html=1;" vertex="1" parent="1">
          <mxGeometry x="320" y="1100" width="320" height="40" as="geometry" />
        </mxCell>
        <mxCell id="22" value="=ge= : greaterThanOrEqualTo" style="rounded=1;whiteSpace=wrap;html=1;" vertex="1" parent="1">
          <mxGeometry x="320" y="1140" width="320" height="40" as="geometry" />
        </mxCell>
        <mxCell id="23" value="=le= : lessThanOrEqualTo" style="rounded=1;whiteSpace=wrap;html=1;" vertex="1" parent="1">
          <mxGeometry x="320" y="1180" width="320" height="40" as="geometry" />
        </mxCell>
        <mxCell id="24" value="=in= : in (all values converted)" style="rounded=1;whiteSpace=wrap;html=1;" vertex="1" parent="1">
          <mxGeometry x="320" y="1220" width="320" height="40" as="geometry" />
        </mxCell>
        <mxCell id="25" value="=like= : like (wildcard, case-insensitive)" style="rounded=1;whiteSpace=wrap;html=1;" vertex="1" parent="1">
          <mxGeometry x="320" y="1260" width="320" height="40" as="geometry" />
        </mxCell>
        <mxCell id="26" value="=out= : not in (all values converted)" style="rounded=1;whiteSpace=wrap;html=1;" vertex="1" parent="1">
          <mxGeometry x="320" y="1300" width="320" height="40" as="geometry" />
        </mxCell>
        <mxCell id="27" value="No operator match: throw exception" style="rounded=1;whiteSpace=wrap;html=1;fillColor=#ffcccc;" vertex="1" parent="1">
          <mxGeometry x="320" y="1340" width="320" height="40" as="geometry" />
        </mxCell>
        <mxCell id="28" value="Return built predicate/specification" style="ellipse;whiteSpace=wrap;html=1;" vertex="1" parent="1">
          <mxGeometry x="80" y="1380" width="220" height="60" as="geometry" />
        </mxCell>
        <!-- Edges -->
        <mxCell id="29" style="edgeStyle=orthogonalEdgeStyle;rounded=0;" edge="1" parent="1" source="2" target="3"><mxGeometry relative="1" as="geometry" /></mxCell>
        <mxCell id="30" style="edgeStyle=orthogonalEdgeStyle;rounded=0;" edge="1" parent="1" source="3" target="4"><mxGeometry relative="1" as="geometry" /></mxCell>
        <mxCell id="31" style="edgeStyle=orthogonalEdgeStyle;rounded=0;" edge="1" parent="1" source="4" target="5"><mxGeometry relative="1" as="geometry" /></mxCell>
        <mxCell id="32" style="edgeStyle=orthogonalEdgeStyle;rounded=0;" edge="1" parent="1" source="4" target="6"><mxGeometry relative="1" as="geometry" /></mxCell>
        <mxCell id="33" style="edgeStyle=orthogonalEdgeStyle;rounded=0;" edge="1" parent="1" source="6" target="7"><mxGeometry relative="1" as="geometry" /></mxCell>
        <mxCell id="34" style="edgeStyle=orthogonalEdgeStyle;rounded=0;" edge="1" parent="1" source="7" target="8"><mxGeometry relative="1" as="geometry" /></mxCell>
        <mxCell id="35" style="edgeStyle=orthogonalEdgeStyle;rounded=0;" edge="1" parent="1" source="8" target="9"><mxGeometry relative="1" as="geometry" /></mxCell>
        <mxCell id="36" style="edgeStyle=orthogonalEdgeStyle;rounded=0;" edge="1" parent="1" source="8" target="10"><mxGeometry relative="1" as="geometry" /></mxCell>
        <mxCell id="37" style="edgeStyle=orthogonalEdgeStyle;rounded=0;" edge="1" parent="1" source="10" target="11"><mxGeometry relative="1" as="geometry" /></mxCell>
        <mxCell id="38" style="edgeStyle=orthogonalEdgeStyle;rounded=0;" edge="1" parent="1" source="10" target="12"><mxGeometry relative="1" as="geometry" /></mxCell>
        <mxCell id="39" style="edgeStyle=orthogonalEdgeStyle;rounded=0;" edge="1" parent="1" source="12" target="13"><mxGeometry relative="1" as="geometry" /></mxCell>
        <mxCell id="40" style="edgeStyle=orthogonalEdgeStyle;rounded=0;" edge="1" parent="1" source="13" target="14"><mxGeometry relative="1" as="geometry" /></mxCell>
        <mxCell id="41" style="edgeStyle=orthogonalEdgeStyle;rounded=0;" edge="1" parent="1" source="14" target="15"><mxGeometry relative="1" as="geometry" /></mxCell>
        <mxCell id="42" style="edgeStyle=orthogonalEdgeStyle;rounded=0;" edge="1" parent="1" source="15" target="16"><mxGeometry relative="1" as="geometry" /></mxCell>
        <mxCell id="43" style="edgeStyle=orthogonalEdgeStyle;rounded=0;" edge="1" parent="1" source="16" target="17"><mxGeometry relative="1" as="geometry" /></mxCell>
        <mxCell id="44" style="edgeStyle=orthogonalEdgeStyle;rounded=0;" edge="1" parent="1" source="17" target="18"><mxGeometry relative="1" as="geometry" /></mxCell>
        <mxCell id="45" style="edgeStyle=orthogonalEdgeStyle;rounded=0;" edge="1" parent="1" source="17" target="19"><mxGeometry relative="1" as="geometry" /></mxCell>
        <mxCell id="46" style="edgeStyle=orthogonalEdgeStyle;rounded=0;" edge="1" parent="1" source="17" target="20"><mxGeometry relative="1" as="geometry" /></mxCell>
        <mxCell id="47" style="edgeStyle=orthogonalEdgeStyle;rounded=0;" edge="1" parent="1" source="17" target="21"><mxGeometry relative="1" as="geometry" /></mxCell>
        <mxCell id="48" style="edgeStyle=orthogonalEdgeStyle;rounded=0;" edge="1" parent="1" source="17" target="22"><mxGeometry relative="1" as="geometry" /></mxCell>
        <mxCell id="49" style="edgeStyle=orthogonalEdgeStyle;rounded=0;" edge="1" parent="1" source="17" target="23"><mxGeometry relative="1" as="geometry" /></mxCell>
        <mxCell id="50" style="edgeStyle=orthogonalEdgeStyle;rounded=0;" edge="1" parent="1" source="17" target="24"><mxGeometry relative="1" as="geometry" /></mxCell>
        <mxCell id="51" style="edgeStyle=orthogonalEdgeStyle;rounded=0;" edge="1" parent="1" source="17" target="25"><mxGeometry relative="1" as="geometry" /></mxCell>
        <mxCell id="52" style="edgeStyle=orthogonalEdgeStyle;rounded=0;" edge="1" parent="1" source="17" target="26"><mxGeometry relative="1" as="geometry" /></mxCell>
        <mxCell id="53" style="edgeStyle=orthogonalEdgeStyle;rounded=0;" edge="1" parent="1" source="17" target="27"><mxGeometry relative="1" as="geometry" /></mxCell>
        <mxCell id="54" style="edgeStyle=orthogonalEdgeStyle;rounded=0;" edge="1" parent="1" source="18" target="28"><mxGeometry relative="1" as="geometry" /></mxCell>
        <mxCell id="55" style="edgeStyle=orthogonalEdgeStyle;rounded=0;" edge="1" parent="1" source="19" target="28"><mxGeometry relative="1" as="geometry" /></mxCell>
        <mxCell id="56" style="edgeStyle=orthogonalEdgeStyle;rounded=0;" edge="1" parent="1" source="20" target="28"><mxGeometry relative="1" as="geometry" /></mxCell>
        <mxCell id="57" style="edgeStyle=orthogonalEdgeStyle;rounded=0;" edge="1" parent="1" source="21" target="28"><mxGeometry relative="1" as="geometry" /></mxCell>
        <mxCell id="58" style="edgeStyle=orthogonalEdgeStyle;rounded=0;" edge="1" parent="1" source="22" target="28"><mxGeometry relative="1" as="geometry" /></mxCell>
        <mxCell id="59" style="edgeStyle=orthogonalEdgeStyle;rounded=0;" edge="1" parent="1" source="23" target="28"><mxGeometry relative="1" as="geometry" /></mxCell>
        <mxCell id="60" style="edgeStyle=orthogonalEdgeStyle;rounded=0;" edge="1" parent="1" source="24" target="28"><mxGeometry relative="1" as="geometry" /></mxCell>
        <mxCell id="61" style="edgeStyle=orthogonalEdgeStyle;rounded=0;" edge="1" parent="1" source="25" target="28"><mxGeometry relative="1" as="geometry" /></mxCell>
        <mxCell id="62" style="edgeStyle=orthogonalEdgeStyle;rounded=0;" edge="1" parent="1" source="26" target="28"><mxGeometry relative="1" as="geometry" /></mxCell>
        <mxCell id="63" style="edgeStyle=orthogonalEdgeStyle;rounded=0;" edge="1" parent="1" source="27" target="28"><mxGeometry relative="1" as="geometry" /></mxCell>
      </root>
    </mxGraphModel>
  </diagram>
</mxfile>
